# xmcd
#
# Track frame offsets:
#	150
#	18235
#	37247
#	65286
#	100030
#	125281
#	146608
#	172970
#	208271
#
# Disc length: 3021 seconds
#
# Revision: 1
# Processed by: cddbd v1.5.2PL0 Copyright (c) Steve Scherf et al.
# Submitted via: audiograbber 1.83.01
#
DISCID=790bcb09
DTITLE=Bad Daddies - The Bad Daddies
DYEAR=1900
DGENRE=Blues
TTITLE0=Cut You Loose
TTITLE1=Ain't Got The Time
TTITLE2=Puttin' Me Down
TTITLE3=Change Of Heart
TTITLE4=Undone
TTITLE5=Workin' Man Blues
TTITLE6=All Night Long
TTITLE7=Slow Blues
TTITLE8=Fistful Of Pennies
EXTD=
EXTT0=
EXTT1=
EXTT2=
EXTT3=
EXTT4=
EXTT5=
EXTT6=
EXTT7=
EXTT8=
PLAYORDER=
